<svg xmlns="http://www.w3.org/2000/svg"

    viewBox="0 0 8.4 8.7" version="1.1" x="0px" y="0px">

    <path
        style="color:#fff;font-variant-ligatures:normal;font-variant-position:normal;font-variant-caps:normal;font-variant-numeric:normal;font-variant-alternates:normal;font-variant-east-asian:normal;font-feature-settings:normal;font-variation-settings:normal;text-indent:0;text-decoration-line:none;text-decoration-style:solid;text-decoration-color:#000000;text-transform:none;direction:ltr;text-orientation:mixed;dominant-baseline:auto;baseline-shift:baseline;white-space:normal;shape-padding:0;shape-margin:0;inline-size:0;isolation:auto;mix-blend-mode:normal;color-interpolation:sRGB;color-interpolation-filters:linearRGB;solid-color:#000000;solid-opacity:1;vector-effect:none;paint-order:markers fill stroke;color-rendering:auto;image-rendering:auto;shape-rendering:auto;enable-background:accumulate;"
        d="m 2.9098994,0.36225079 a 0.26460995,0.26460995 0 0 0 -0.2635488,0.2656168 v 0.267684 H 1.0955404 A 0.26460995,0.26460995 0 0 0 0.82992257,1.1591015 V 7.838797 A 0.26460995,0.26460995 0 0 0 1.0955404,8.104414 H 7.3711263 A 0.26460995,0.26460995 0 0 0 7.6367441,7.838797 V 1.1591015 A 0.26460995,0.26460995 0 0 0 7.3711263,0.89555159 H 5.820316 v -0.267684 A 0.26460995,0.26460995 0 0 0 5.5567672,0.36225079 Z m 0.2656179,0.5291667 H 5.2911494 V 1.4205841 H 3.1755173 Z M 1.3590892,1.4247183 H 2.6463506 V 1.6862009 A 0.26460995,0.26460995 0 0 0 2.9098994,1.9502675 H 5.5567672 A 0.26460995,0.26460995 0 0 0 5.820316,1.6862009 V 1.4247183 H 7.1075775 V 7.575247 H 1.3590892 Z M 5.4001868,3.5067618 A 0.26458349,0.26458349 0 0 0 5.2208707,3.5827261 L 3.806485,4.9986602 3.2457959,4.4364206 a 0.26458349,0.26458349 0 0 0 -0.3746526,0 0.26458349,0.26458349 0 0 0 0,0.375171 l 0.7477574,0.747758 a 0.26460995,0.26460995 0 0 0 0.3751712,0 L 5.5955234,3.957897 a 0.26458349,0.26458349 0 0 0 0,-0.3751709 0.26458349,0.26458349 0 0 0 -0.1953366,-0.075964 z"
        clip-rule="nonzero" display="inline" visibility="visible" fill="#fff" fill-opacity="1"
        fill-rule="nonzero" stroke="none" />


</svg>